<svg xmlns="http://www.w3.org/2000/svg" width="22.864" height="23" viewBox="0 0 22.864 23">
  <path id="Trazado_12" data-name="Trazado 12" d="M18.769,15.787c-.23-.115-1.723-.8-1.953-.919a.541.541,0,0,0-.689.115c-.23.23-.689.919-.919,1.149-.115.23-.345.23-.574.115a9.39,9.39,0,0,1-2.3-1.378,13.221,13.221,0,0,1-1.608-1.953.505.505,0,0,1,.115-.574c.115-.115.23-.345.459-.459a.871.871,0,0,0,.23-.459.349.349,0,0,0,0-.459A20.417,20.417,0,0,1,10.614,8.9c-.115-.8-.345-.8-.574-.8H9.466a1.31,1.31,0,0,0-.689.345,3.306,3.306,0,0,0-1.034,2.412,6.017,6.017,0,0,0,1.149,2.986,12.246,12.246,0,0,0,4.824,4.25,9,9,0,0,0,1.608.574,3.281,3.281,0,0,0,1.838.115,2.976,2.976,0,0,0,1.953-1.378,1.921,1.921,0,0,0,.115-1.378l-.459-.23M21.641,5.335A11.449,11.449,0,0,0,3.608,19.117L2,24.975l6.087-1.608a11.348,11.348,0,0,0,16.769-9.993,11.187,11.187,0,0,0-3.216-8.04m-3.1,16.08a9.639,9.639,0,0,1-5.054,1.493,10.072,10.072,0,0,1-4.824-1.263l-.345-.23-3.561.919.919-3.446-.23-.345a9.644,9.644,0,0,1,3.1-13.209A9.343,9.343,0,0,1,21.526,8.321a9.478,9.478,0,0,1-2.986,13.094" transform="translate(-2 -1.975)" fill="#fffdfd"/>
</svg>
